<svg width="14" height="20" viewBox="0 0 14 20" fill="none" xmlns="http://www.w3.org/2000/svg">
<path fill-rule="evenodd" clip-rule="evenodd" d="M11 13.915V16C11 18.2091 9.20914 20 7 20C4.79086 20 3 18.2091 3 16V13.915C3 13.7197 2.93083 13.5067 2.76746 13.2262C2.6625 13.046 2.52518 12.848 2.318 12.5739L2.24831 12.483C2.10998 12.3027 1.80784 11.9089 1.6963 11.7583C0.566442 10.2322 0 8.86987 0 7C0 3.13401 3.13401 0 7 0C10.866 0 14 3.13401 14 7C14 8.91076 13.4258 10.3248 12.3056 11.848C12.1868 12.0094 11.8873 12.3987 11.7099 12.6292L11.7099 12.6292C11.6405 12.7195 11.5898 12.7854 11.5759 12.8039C11.3495 13.105 11.2089 13.3185 11.1175 13.5039C11.0347 13.6717 11 13.8013 11 13.915ZM9.04369 13.4393C9.0947 13.1627 9.18955 12.8913 9.32384 12.6191C9.4817 12.2991 9.68243 11.9943 9.97716 11.6022C9.99736 11.5753 10.0624 11.4908 10.1463 11.3816L10.1468 11.3809C10.3269 11.1468 10.594 10.7996 10.6944 10.663C11.583 9.45479 12 8.42791 12 7C12 4.23858 9.76142 2 7 2C4.23858 2 2 4.23858 2 7C2 8.37855 2.40666 9.35662 3.3037 10.5682C3.39998 10.6983 3.67183 11.0527 3.81875 11.2443L3.81889 11.2444L3.91348 11.3679C4.16474 11.7003 4.3425 11.9566 4.49567 12.2196C4.73422 12.6291 4.89259 13.0283 4.9612 13.4423C5.58435 13.8163 6.25799 14 7 14C7.74395 14 8.41917 13.8153 9.04369 13.4393ZM9 16V15.6624C8.36753 15.8869 7.69934 16 7 16C6.30066 16 5.63247 15.8869 5 15.6624V16C5 17.1046 5.89543 18 7 18C8.10457 18 9 17.1046 9 16Z" fill="#3D4127"/>
</svg>
